<svg width="84" height="40" viewBox="0 0 84 40" fill="none" xmlns="http://www.w3.org/2000/svg">
<path d="M12.9187 16C12.9187 7.16344 20.0821 0 28.9187 0H67.9187C76.7553 0 83.9187 7.16344 83.9187 16V24C83.9187 32.8366 76.7553 40 67.9187 40H28.9187C20.0821 40 12.9187 32.8366 12.9187 24V16Z" fill="white"/>
<path d="M35.6067 25.192C34.7427 25.192 33.9374 25.0533 33.1907 24.776C32.4547 24.488 31.8147 24.0827 31.2707 23.56C30.7267 23.0373 30.3 22.424 29.9907 21.72C29.692 21.016 29.5427 20.2427 29.5427 19.4C29.5427 18.5573 29.692 17.784 29.9907 17.08C30.3 16.376 30.7267 15.7627 31.2707 15.24C31.8254 14.7173 32.4707 14.3173 33.2067 14.04C33.9427 13.752 34.748 13.608 35.6227 13.608C36.5934 13.608 37.468 13.7787 38.2467 14.12C39.036 14.4507 39.6974 14.9413 40.2307 15.592L38.5667 17.128C38.1827 16.6907 37.756 16.3653 37.2867 16.152C36.8174 15.928 36.3054 15.816 35.7507 15.816C35.228 15.816 34.748 15.9013 34.3107 16.072C33.8734 16.2427 33.4947 16.488 33.1747 16.808C32.8547 17.128 32.604 17.5067 32.4227 17.944C32.252 18.3813 32.1667 18.8667 32.1667 19.4C32.1667 19.9333 32.252 20.4187 32.4227 20.856C32.604 21.2933 32.8547 21.672 33.1747 21.992C33.4947 22.312 33.8734 22.5573 34.3107 22.728C34.748 22.8987 35.228 22.984 35.7507 22.984C36.3054 22.984 36.8174 22.8773 37.2867 22.664C37.756 22.44 38.1827 22.104 38.5667 21.656L40.2307 23.192C39.6974 23.8427 39.036 24.3387 38.2467 24.68C37.468 25.0213 36.588 25.192 35.6067 25.192ZM47.3582 25V23.32L47.1982 22.952V19.944C47.1982 19.4107 47.0329 18.9947 46.7022 18.696C46.3822 18.3973 45.8862 18.248 45.2142 18.248C44.7555 18.248 44.3022 18.3227 43.8542 18.472C43.4169 18.6107 43.0435 18.8027 42.7342 19.048L41.8382 17.304C42.3075 16.9733 42.8729 16.7173 43.5342 16.536C44.1955 16.3547 44.8675 16.264 45.5502 16.264C46.8622 16.264 47.8809 16.5733 48.6062 17.192C49.3315 17.8107 49.6942 18.776 49.6942 20.088V25H47.3582ZM44.7342 25.128C44.0622 25.128 43.4862 25.016 43.0062 24.792C42.5262 24.5573 42.1582 24.2427 41.9022 23.848C41.6462 23.4533 41.5182 23.0107 41.5182 22.52C41.5182 22.008 41.6409 21.56 41.8862 21.176C42.1422 20.792 42.5422 20.4933 43.0862 20.28C43.6302 20.056 44.3395 19.944 45.2142 19.944H47.5022V21.4H45.4862C44.8995 21.4 44.4942 21.496 44.2702 21.688C44.0569 21.88 43.9502 22.12 43.9502 22.408C43.9502 22.728 44.0729 22.984 44.3182 23.176C44.5742 23.3573 44.9209 23.448 45.3582 23.448C45.7742 23.448 46.1475 23.352 46.4782 23.16C46.8089 22.9573 47.0489 22.664 47.1982 22.28L47.5822 23.432C47.4009 23.9867 47.0702 24.408 46.5902 24.696C46.1102 24.984 45.4915 25.128 44.7342 25.128ZM52.5772 25V16.2C52.5772 15.2293 52.8652 14.456 53.4412 13.88C54.0172 13.2933 54.8385 13 55.9052 13C56.2679 13 56.6145 13.0373 56.9452 13.112C57.2865 13.1867 57.5745 13.304 57.8092 13.464L57.1532 15.272C57.0145 15.176 56.8599 15.1013 56.6892 15.048C56.5185 14.9947 56.3372 14.968 56.1452 14.968C55.7825 14.968 55.4999 15.0747 55.2972 15.288C55.1052 15.4907 55.0092 15.8 55.0092 16.216V17.016L55.0732 18.088V25H52.5772ZM51.2492 18.504V16.584H57.2172V18.504H51.2492ZM62.9433 25.128C61.962 25.128 61.098 24.936 60.3513 24.552C59.6153 24.168 59.0447 23.6453 58.6393 22.984C58.234 22.312 58.0313 21.5493 58.0313 20.696C58.0313 19.832 58.2287 19.0693 58.6233 18.408C59.0287 17.736 59.578 17.2133 60.2713 16.84C60.9647 16.456 61.7487 16.264 62.6233 16.264C63.466 16.264 64.2233 16.4453 64.8953 16.808C65.578 17.16 66.1167 17.672 66.5113 18.344C66.906 19.0053 67.1033 19.8 67.1033 20.728C67.1033 20.824 67.098 20.936 67.0873 21.064C67.0767 21.1813 67.066 21.2933 67.0553 21.4H60.0633V19.944H65.7433L64.7833 20.376C64.7833 19.928 64.6927 19.5387 64.5113 19.208C64.33 18.8773 64.0793 18.6213 63.7593 18.44C63.4393 18.248 63.066 18.152 62.6393 18.152C62.2127 18.152 61.834 18.248 61.5033 18.44C61.1833 18.6213 60.9327 18.8827 60.7513 19.224C60.57 19.5547 60.4793 19.9493 60.4793 20.408V20.792C60.4793 21.2613 60.5807 21.6773 60.7833 22.04C60.9967 22.392 61.29 22.664 61.6633 22.856C62.0473 23.0373 62.4953 23.128 63.0073 23.128C63.466 23.128 63.866 23.0587 64.2073 22.92C64.5593 22.7813 64.8793 22.5733 65.1673 22.296L66.4953 23.736C66.1007 24.184 65.6047 24.5307 65.0073 24.776C64.41 25.0107 63.722 25.128 62.9433 25.128Z" fill="#1C1917"/>
<g clip-path="url(#clip0_4734_296)">
<path d="M-1.75 19.9676L15.5 12.0001L15.5 27.935L-1.75 19.9676Z" fill="white"/>
</g>
<defs>
<clipPath id="clip0_4734_296">
<rect width="16" height="15" fill="white" transform="translate(15 12) rotate(90)"/>
</clipPath>
</defs>
</svg>
