<svg width="46" height="40" viewBox="0 0 46 40" fill="none" xmlns="http://www.w3.org/2000/svg">
<path d="M45.9187 24.2872C45.9187 34.1935 38.9591 40 22.9593 40C6.95955 40 0 34.1935 0 24.2872C0 14.3809 8.32276 6.56546 22.9593 6.56546C37.5959 6.56546 45.9187 14.3809 45.9187 24.2872Z" fill="white"/>
<path d="M5.22503 6.07592C5.16533 4.60731 6.85455 3.74385 8.00995 4.65239L12.9416 8.53041C13.3025 8.81413 13.4174 9.30444 13.1457 9.6744C12.6809 10.3073 11.7712 11.2831 10.1741 12.0973C8.57114 12.9144 7.17468 13.1105 6.33792 13.1405C5.85693 13.1577 5.497 12.7657 5.47745 12.2848L5.22503 6.07592Z" fill="#E1DED8"/>
<path d="M40.7366 5.78894C40.7963 4.32032 39.1071 3.45686 37.9517 4.36541L33.02 8.24343C32.6592 8.52714 32.5443 9.01745 32.816 9.38741C33.2807 10.0203 34.1905 10.9961 35.7876 11.8103C37.3905 12.6274 38.787 12.8235 39.6237 12.8535C40.1047 12.8707 40.4647 12.4787 40.4842 11.9978L40.7366 5.78894Z" fill="#E1DED8"/>
<mask id="path-4-inside-1_4734_275" fill="white">
<path fill-rule="evenodd" clip-rule="evenodd" d="M5.01529 5.57186C5.03922 4.19459 6.59031 3.40154 7.72081 4.18857L13.1381 7.95995C15.9904 7.06074 19.2748 6.56548 22.9593 6.56548C26.6314 6.56548 29.9061 7.05739 32.7516 7.95083L38.1558 4.18857C39.2863 3.40154 40.8374 4.19459 40.8613 5.57186L40.9817 12.4949C40.9825 12.543 40.9799 12.5904 40.9741 12.6366C44.2081 15.7348 45.9187 19.7961 45.9187 24.2872C45.9187 34.1935 38.9591 40 22.9593 40C6.95955 40 0 34.1935 0 24.2872C0 19.8133 1.69755 15.7658 4.90761 12.6721C4.89828 12.6147 4.89393 12.5554 4.89498 12.4949L5.01529 5.57186Z"/>
</mask>
<path d="M7.72081 4.18857L8.48262 3.09429V3.09429L7.72081 4.18857ZM5.01529 5.57186L6.34842 5.59503V5.59503L5.01529 5.57186ZM13.1381 7.95995L12.3763 9.05422L12.9141 9.4286L13.539 9.23158L13.1381 7.95995ZM32.7516 7.95083L32.3522 9.22294L32.9764 9.41893L33.5134 9.04511L32.7516 7.95083ZM38.1558 4.18857L37.394 3.09429V3.09429L38.1558 4.18857ZM40.8613 5.57186L39.5282 5.59503V5.59503L40.8613 5.57186ZM40.9817 12.4949L42.3148 12.4718V12.4718L40.9817 12.4949ZM40.9741 12.6366L39.6511 12.4713L39.568 13.136L40.0517 13.5994L40.9741 12.6366ZM4.90761 12.6721L5.83285 13.6322L6.33559 13.1477L6.22371 12.4585L4.90761 12.6721ZM4.89498 12.4949L3.56185 12.4718L4.89498 12.4949ZM8.48262 3.09429C6.47675 1.69787 3.72462 3.10498 3.68215 5.54869L6.34842 5.59503C6.35382 5.2842 6.70387 5.10522 6.95901 5.28284L8.48262 3.09429ZM13.8999 6.86567L8.48262 3.09429L6.95901 5.28284L12.3763 9.05422L13.8999 6.86567ZM22.9593 5.23214C19.1564 5.23214 15.735 5.74324 12.7372 6.68831L13.539 9.23158C16.2458 8.37824 19.3932 7.89881 22.9593 7.89881V5.23214ZM33.151 6.67873C30.1605 5.73979 26.7494 5.23214 22.9593 5.23214V7.89881C26.5134 7.89881 29.6516 8.375 32.3522 9.22294L33.151 6.67873ZM37.394 3.09429L31.9898 6.85656L33.5134 9.04511L38.9176 5.28284L37.394 3.09429ZM42.1945 5.54869C42.152 3.10498 39.3999 1.69787 37.394 3.09429L38.9176 5.28284C39.1728 5.10522 39.5228 5.2842 39.5282 5.59503L42.1945 5.54869ZM42.3148 12.4718L42.1945 5.54869L39.5282 5.59503L39.6485 12.5181L42.3148 12.4718ZM42.2972 12.8019C42.3108 12.6932 42.3167 12.5829 42.3148 12.4718L39.6485 12.5181C39.6483 12.5032 39.649 12.4875 39.6511 12.4713L42.2972 12.8019ZM47.252 24.2872C47.252 19.4379 45.3968 15.0272 41.8965 11.6738L40.0517 13.5994C43.0194 16.4424 44.5854 20.1543 44.5854 24.2872H47.252ZM22.9593 41.3334C31.0815 41.3334 37.15 39.8665 41.2175 36.9409C45.3646 33.9581 47.252 29.5913 47.252 24.2872H44.5854C44.5854 28.8894 42.993 32.3791 39.6604 34.7761C36.2482 37.2303 30.837 38.6667 22.9593 38.6667V41.3334ZM-1.33333 24.2872C-1.33333 29.5913 0.554124 33.9581 4.70121 36.9409C8.76873 39.8665 14.8372 41.3334 22.9593 41.3334V38.6667C15.0817 38.6667 9.6705 37.2303 6.25829 34.7761C2.92565 32.3791 1.33333 28.8894 1.33333 24.2872H-1.33333ZM3.98236 11.7121C0.507597 15.0609 -1.33333 19.4566 -1.33333 24.2872H1.33333C1.33333 20.1699 2.88751 16.4707 5.83285 13.6322L3.98236 11.7121ZM3.56185 12.4718C3.55942 12.6114 3.56944 12.7499 3.5915 12.8858L6.22371 12.4585C6.22712 12.4795 6.22844 12.4995 6.22811 12.5181L3.56185 12.4718ZM3.68215 5.54869L3.56185 12.4718L6.22811 12.5181L6.34842 5.59503L3.68215 5.54869Z" fill="#E1DED8" mask="url(#path-4-inside-1_4734_275)"/>
<ellipse cx="22.9594" cy="24.5742" rx="12.6276" ry="8.96849" fill="#E1DED8"/>
<circle cx="15.4975" cy="23.211" r="1.43496" fill="#1C1917"/>
<circle cx="30.5646" cy="23.211" r="1.43496" fill="#1C1917"/>
<ellipse cx="22.9591" cy="25.5787" rx="1.43496" ry="0.932723" fill="#1C1917"/>
<line y1="-0.35874" x2="3.12943" y2="-0.35874" transform="matrix(0.94 0.341173 -0.367633 0.929971 9.18384 26.5114)" stroke="#A8A29E" stroke-width="0.71748"/>
<line y1="-0.35874" x2="3.12943" y2="-0.35874" transform="matrix(0.94 -0.341173 -0.367633 -0.929971 9.18384 30.0988)" stroke="#A8A29E" stroke-width="0.71748"/>
<line y1="-0.35874" x2="3.12943" y2="-0.35874" transform="matrix(-0.94 0.341173 0.367633 0.929971 36.5916 26.5114)" stroke="#A8A29E" stroke-width="0.71748"/>
<line y1="-0.35874" x2="3.12943" y2="-0.35874" transform="matrix(-0.94 -0.341173 0.367633 -0.929971 36.5916 30.0988)" stroke="#A8A29E" stroke-width="0.71748"/>
</svg>
