<svg width="46" height="40" viewBox="0 0 46 40" fill="none" xmlns="http://www.w3.org/2000/svg">
<path d="M45.9187 24.2872C45.9187 34.1935 38.9591 40 22.9593 40C6.95955 40 0 34.1935 0 24.2872C0 14.3809 8.32276 6.56544 22.9593 6.56544C37.5959 6.56544 45.9187 14.3809 45.9187 24.2872Z" fill="#E1DED8"/>
<path d="M5.22479 6.07592C5.16509 4.60731 6.85431 3.74385 8.00971 4.65239L12.9414 8.53041C13.3022 8.81413 13.4171 9.30444 13.1455 9.6744C12.6807 10.3073 11.7709 11.2831 10.1739 12.0973C8.5709 12.9144 7.17444 13.1105 6.33768 13.1405C5.85668 13.1577 5.49675 12.7657 5.4772 12.2848L5.22479 6.07592Z" fill="#E1DED8"/>
<path d="M40.7366 5.78894C40.7963 4.32032 39.1071 3.45686 37.9517 4.36541L33.02 8.24343C32.6592 8.52714 32.5443 9.01745 32.816 9.38741C33.2807 10.0203 34.1905 10.9961 35.7876 11.8103C37.3905 12.6274 38.787 12.8235 39.6237 12.8535C40.1047 12.8707 40.4647 12.4787 40.4842 11.9978L40.7366 5.78894Z" fill="#E1DED8"/>
<mask id="path-4-inside-1_4734_720" fill="white">
<path fill-rule="evenodd" clip-rule="evenodd" d="M5.01529 5.57184C5.03922 4.19457 6.59031 3.40153 7.72081 4.18855L13.1381 7.95992C15.9904 7.06072 19.2748 6.56545 22.9593 6.56545C26.6314 6.56545 29.9061 7.05737 32.7516 7.95081L38.1558 4.18855C39.2863 3.40153 40.8374 4.19457 40.8613 5.57184L40.9817 12.4949C40.9825 12.543 40.9799 12.5903 40.9741 12.6366C44.2081 15.7348 45.9187 19.7961 45.9187 24.2872C45.9187 34.1935 38.9591 40 22.9593 40C6.95955 40 0 34.1935 0 24.2872C0 19.8133 1.69755 15.7658 4.9076 12.6721C4.89828 12.6147 4.89393 12.5554 4.89498 12.4949L5.01529 5.57184Z"/>
</mask>
<path d="M7.72081 4.18855L8.21273 3.48194V3.48194L7.72081 4.18855ZM5.01529 5.57184L5.87613 5.5868L5.01529 5.57184ZM13.1381 7.95992L12.6462 8.66653L12.9935 8.90828L13.397 8.78106L13.1381 7.95992ZM32.7516 7.95081L32.4937 8.77225L32.8968 8.89881L33.2435 8.65742L32.7516 7.95081ZM38.1558 4.18855L37.6639 3.48194V3.48194L38.1558 4.18855ZM40.8613 5.57184L40.0005 5.5868V5.5868L40.8613 5.57184ZM40.9817 12.4949L41.8425 12.48L41.8425 12.4799L40.9817 12.4949ZM40.9741 12.6366L40.1198 12.5298L40.0662 12.959L40.3785 13.2583L40.9741 12.6366ZM4.9076 12.6721L5.50506 13.292L5.82969 12.9792L5.75746 12.5342L4.9076 12.6721ZM4.89498 12.4949L5.75583 12.5099L4.89498 12.4949ZM8.21273 3.48194C6.51698 2.30141 4.19034 3.49098 4.15444 5.55689L5.87613 5.5868C5.8881 4.89817 6.66364 4.50165 7.2289 4.89516L8.21273 3.48194ZM13.63 7.25332L8.21273 3.48194L7.2289 4.89516L12.6462 8.66653L13.63 7.25332ZM22.9593 5.70448C19.1984 5.70448 15.8255 6.20996 12.8793 7.13879L13.397 8.78106C16.1553 7.91147 19.3513 7.42643 22.9593 7.42643V5.70448ZM33.0095 7.12937C30.0704 6.20655 26.7076 5.70448 22.9593 5.70448V7.42643C26.5552 7.42643 29.7417 7.90819 32.4937 8.77225L33.0095 7.12937ZM37.6639 3.48194L32.2597 7.2442L33.2435 8.65742L38.6477 4.89516L37.6639 3.48194ZM41.7222 5.55689C41.6863 3.49098 39.3596 2.30141 37.6639 3.48194L38.6477 4.89516C39.213 4.50165 39.9885 4.89817 40.0005 5.5868L41.7222 5.55689ZM41.8425 12.4799L41.7222 5.55688L40.0005 5.5868L40.1208 12.5099L41.8425 12.4799ZM41.8285 12.7433C41.8393 12.6567 41.844 12.5687 41.8425 12.48L40.1208 12.5099C40.1209 12.5173 40.1205 12.524 40.1198 12.5298L41.8285 12.7433ZM46.7797 24.2872C46.7797 19.5648 44.9757 15.2778 41.5697 12.0149L40.3785 13.2583C43.4405 16.1917 45.0577 20.0274 45.0577 24.2872H46.7797ZM22.9593 40.861C31.0382 40.861 36.9902 39.3995 40.9417 36.5574C44.9445 33.6784 46.7797 29.467 46.7797 24.2872H45.0577C45.0577 29.0137 43.4131 32.6587 39.9362 35.1595C36.4079 37.6972 30.8803 39.139 22.9593 39.139V40.861ZM-0.860975 24.2872C-0.860975 29.467 0.974203 33.6784 4.97702 36.5574C8.92846 39.3995 14.8805 40.861 22.9593 40.861V39.139C15.0384 39.139 9.51076 37.6972 5.98248 35.1595C2.50557 32.6587 0.860975 29.0137 0.860975 24.2872H-0.860975ZM4.31014 12.0522C0.92916 15.3106 -0.860975 19.583 -0.860975 24.2872H0.860975C0.860975 20.0436 2.46594 16.221 5.50506 13.292L4.31014 12.0522ZM4.03413 12.4799C4.0322 12.5915 4.04021 12.702 4.05775 12.81L5.75746 12.5342C5.75635 12.5274 5.75566 12.5193 5.75583 12.5099L4.03413 12.4799ZM4.15444 5.55689L4.03413 12.4799L5.75583 12.5099L5.87613 5.5868L4.15444 5.55689Z" fill="#E1DED8" mask="url(#path-4-inside-1_4734_720)"/>
<ellipse cx="22.9594" cy="24.5742" rx="12.6276" ry="8.96849" fill="#E1DED8"/>
<circle cx="15.4975" cy="23.211" r="1.43496" fill="#1C1917"/>
<circle cx="30.5646" cy="23.211" r="1.43496" fill="#1C1917"/>
<ellipse cx="22.9594" cy="25.5787" rx="1.43496" ry="0.932723" fill="#1C1917"/>
<line y1="-0.35874" x2="3.12943" y2="-0.35874" transform="matrix(0.94 0.341173 -0.367633 0.929971 9.18359 26.5114)" stroke="#A8A29E" stroke-width="0.71748"/>
<line y1="-0.35874" x2="3.12943" y2="-0.35874" transform="matrix(0.94 -0.341173 -0.367633 -0.929971 9.18359 30.0988)" stroke="#A8A29E" stroke-width="0.71748"/>
<line y1="-0.35874" x2="3.12943" y2="-0.35874" transform="matrix(-0.94 0.341173 0.367633 0.929971 36.5913 26.5114)" stroke="#A8A29E" stroke-width="0.71748"/>
<line y1="-0.35874" x2="3.12943" y2="-0.35874" transform="matrix(-0.94 -0.341173 0.367633 -0.929971 36.5913 30.0988)" stroke="#A8A29E" stroke-width="0.71748"/>
</svg>
